<?xml version="1.0" encoding="utf-8" ?>
<svg xmlns="http://www.w3.org/2000/svg" xmlns:xlink="http://www.w3.org/1999/xlink" width="933" height="790">

<style>
  path { fill: #EDC06D; }
</style>

	<path d="M82.5795 395.522L535.029 403.208L713.873 406.209C743.335 406.691 772.978 406.182 802.41 407.453L802.489 407.603L793.945 408.062C788.947 408.764 783.227 408.364 778.143 408.404C766.891 408.491 755.623 408.434 744.375 408.689C692.245 409.758 640.106 410.41 587.966 410.645L83.4446 416.736C82.9198 409.673 82.4987 402.606 82.5795 395.522Z"/>
	<path d="M86.1382 338.994L603.466 347.608L742.884 349.736L784.258 350.28C792.263 350.312 801.344 349.423 809.217 350.744C805.96 351.849 800.631 351.242 797.127 351.269L312.623 357.419L158.094 359.327C133.321 359.621 108.515 359.196 83.7518 360.068C84.6494 353.06 85.0506 345.976 86.1382 338.994Z"/>
	<path d="M88.0532 452.379L605.628 461.18L727.232 463.262C742.397 463.324 757.562 463.475 772.725 463.713C780.834 463.813 789.565 463.367 797.578 464.427C795.136 464.984 792.24 464.723 789.724 464.731C746.905 464.786 704.074 465.933 661.257 466.377L91.325 473.34C90.6173 466.312 89.2532 459.338 88.0532 452.379Z"/>
	<path d="M98.2396 282.314L488.285 289.129L651.479 291.922C673.381 292.399 695.598 291.813 717.448 293.138C716.979 294.385 717.035 294.958 715.721 295.526C713.897 296.314 711.108 295.704 709.102 295.836C703.663 295.577 698.049 296.336 692.586 296.462C682.542 296.692 672.464 296.559 662.415 296.587L516.03 298.317L93.1066 303.163C94.5368 296.159 96.4598 289.237 98.2396 282.314Z"/>
	<path d="M102.193 509.477C111.339 510.109 120.662 510.001 129.827 510.101L171.606 510.6L287.247 512.566L618.8 518.373L730.076 520.216C743.415 520.346 756.757 520.161 770.094 520.363C776.799 520.464 783.872 520.317 790.507 521.235C788.492 521.794 786.223 521.565 784.144 521.547C764.639 521.335 745.099 521.954 725.595 522.26L633.073 523.421L257.928 527.701C208.319 528.587 158.706 529.177 109.09 529.47C106.678 522.848 104.172 516.244 102.193 509.477Z"/>
	<path d="M119.836 227.388L586.194 234.791L725.988 237.064L770.842 237.776C778.702 237.91 787.05 237.506 794.821 238.495L794.555 238.799C789.998 239.532 785.113 239.232 780.499 239.258C764.864 239.629 749.226 239.478 733.589 239.713L556.196 241.659L111.436 246.898C114.13 240.349 116.93 233.845 119.836 227.388Z"/>
	<path d="M126.655 566.18C139.458 567.256 154.845 566.487 168.02 566.765L278.534 568.706L628.682 575.1L732.298 577.089C738.172 577.228 758.264 576.709 762.408 577.643C760.626 578.295 758.687 578.159 756.81 578.184L137.504 585.447C133.632 579.172 130.012 572.745 126.655 566.18Z"/>
	<path d="M153.119 172.171C194.316 172.151 235.561 173.573 276.756 174.24L571.411 179.474C605.02 180.026 638.708 181.328 672.315 181.298C669.034 184.27 665.847 183.708 661.708 183.943C642.605 185.158 623.3 184.68 604.153 185.035L466.161 186.588L140.127 191.254C144.319 184.8 148.651 178.437 153.119 172.171Z"/>
	<path d="M202.948 116.236C217.986 115.905 233.043 116.876 248.076 117.184L344.084 119.169C468.237 122.204 592.405 124.58 716.583 126.296L717.116 126.623L717.293 126.334L717.854 126.61C715.702 128.354 696.321 127.514 692.123 127.485C655.605 127.861 619.089 128.449 582.578 129.247L367.187 132.419L237.196 134.29C226.42 134.428 215.643 134.483 204.867 134.457C197.851 134.461 190.721 134.187 183.742 134.969C190.02 128.824 195.961 121.527 202.948 116.236Z"/>
	<path d="M164.281 622.548C176.756 624.473 193.283 623.258 206.194 623.432L291.186 624.94L609.343 631.165C633.076 631.552 656.826 632.206 680.56 632.332L705.238 632.434C709.783 632.447 714.791 632.051 719.267 632.752L718.923 632.892L718.769 632.613L719.16 632.685L718.803 632.943L718.742 632.637L717.819 632.573L718.338 633.033C716.508 633.355 714.589 633.28 712.734 633.314L391.056 637.664L248.729 639.675C225.408 639.936 202.111 640.962 178.783 640.42C174.456 635.875 166.658 628.193 164.281 622.548Z"/>
	<path d="M215.536 675.763C226.103 677.159 237.521 676.475 248.221 676.617L305.603 677.777L515.5 682.026C538.843 682.569 562.285 682.359 585.605 683.491C586.714 683.662 587.867 683.908 588.984 683.994L588.84 686.57C586.631 686.533 583.458 686.108 581.403 686.869C561.296 688.134 541 687.334 520.854 687.699L370.62 689.669C346.436 689.946 322.158 690.154 297.988 690.873C284.463 691.363 270.93 691.634 257.395 691.686C250.282 691.756 243.115 692.104 236.015 691.586C228.927 686.719 222.174 681.227 215.536 675.763Z"/>
	<path d="M271.583 66.1623C281.066 65.7978 290.713 66.8521 300.211 67.1111L353.51 68.1013L546.931 72.1624L609.093 73.1389C614.82 73.2245 628.971 72.5097 633.815 73.849C627.174 75.4554 614.183 74.6279 606.928 74.6785C575.233 74.8843 543.54 75.4397 511.857 76.3446L383.225 78.3198L295.683 79.514C279.865 79.7178 263.636 78.7372 247.923 80.5835C255.651 75.7743 263.466 70.2513 271.583 66.1623Z"/>
	<path d="M301.443 730.364L506.504 735.221C515.465 735.426 573.484 735.773 575.786 736.785C574.85 737.464 573.894 737.314 572.761 737.391L396.518 740.514L355.227 741.488C347.013 741.66 338.434 742.276 330.282 741.132C320.323 739.734 310.856 733.75 301.443 730.364Z"/>
	<path d="M375.067 26.5606C387.17 25.7272 399.827 27.2503 411.999 27.4823L499.926 29.3698C508.039 29.6123 516.155 29.7148 524.271 29.6772C531.941 29.6687 541.003 28.6768 548.43 30.4358C545.923 31.7381 525.914 30.971 521.55 30.9696C463.642 32.2097 405.692 31.9585 347.786 33.3495C356.835 30.8157 365.758 27.9948 375.067 26.5606Z"/>
	<path d="M717.448 293.138C727.655 293.304 737.943 292.852 748.129 293.368C764.488 292.955 780.857 293.222 797.194 294.168C800.467 294.332 804.581 293.796 807.696 294.681C801.293 296.765 776.879 296.132 768.771 296.006C748.954 296.196 728.901 296.876 709.102 295.836C711.108 295.704 713.897 296.314 715.721 295.526C717.035 294.958 716.979 294.385 717.448 293.138Z"/>
	<path d="M717.448 293.138C727.655 293.304 737.943 292.852 748.129 293.368C747.895 293.462 747.663 293.563 747.426 293.65C745.628 294.312 742.962 293.668 741.495 294.643C749.408 297.342 760.408 295.102 768.771 296.006C748.954 296.196 728.901 296.876 709.102 295.836C711.108 295.704 713.897 296.314 715.721 295.526C717.035 294.958 716.979 294.385 717.448 293.138Z"/>
	<path d="M672.315 181.298C701.217 181.151 730.116 181.954 758.966 183.706C754.58 185.213 743.436 183.396 738.124 183.417C731.101 183.445 724.082 183.901 717.06 184.031C712.715 184.111 708.379 183.797 704.037 183.846C689.876 184.004 675.887 184.308 661.708 183.943C665.847 183.708 669.034 184.27 672.315 181.298Z"/>
	<path d="M609.663 683.585C618.117 683.718 667.677 683.853 672.32 685.753L671.45 685.468L672.035 685.885C663.587 686.757 654.85 686.116 646.35 686.237C636.613 686.376 626.62 687.158 616.903 686.725C613.589 686.597 605.478 686.843 602.909 685.879C604.13 683.471 607.309 685.346 609.201 683.956C609.36 683.839 609.509 683.708 609.663 683.585Z"/>
	<path d="M585.605 683.491C593.624 683.39 601.645 683.421 609.663 683.585C609.509 683.708 609.36 683.839 609.201 683.956C607.309 685.346 604.13 683.471 602.909 685.879C605.478 686.843 613.589 686.597 616.903 686.725C605.083 687.106 593.227 686.934 581.403 686.869C583.458 686.108 586.631 686.533 588.84 686.57L588.984 683.994C587.867 683.908 586.714 683.662 585.605 683.491Z"/>
	<path d="M588.984 683.994C591.685 683.956 596.301 683.401 598.457 685.217C597.778 686.113 596.733 686.274 595.639 686.458C593.535 686.814 590.993 686.566 588.84 686.57L588.984 683.994Z"/>
</svg>
