<?xml version="1.0" standalone="no"?>
<!DOCTYPE svg PUBLIC "-//W3C//DTD SVG 20010904//EN"
 "http://www.w3.org/TR/2001/REC-SVG-20010904/DTD/svg10.dtd">
<svg version="1.0" xmlns="http://www.w3.org/2000/svg"
 width="550.000000pt" height="550.000000pt" viewBox="0 0 550.000000 550.000000"
 preserveAspectRatio="xMidYMid meet">

<g transform="translate(0.000000,550.000000) scale(0.100000,-0.100000)"
fill="#00533e" stroke="none">
<path d="M756 4208 c-277 -275 -396 -399 -396 -415 0 -20 307 -346 479 -508
l63 -60 82 -6 c44 -3 716 -7 1491 -7 l1410 -2 28 -30 c32 -35 34 -65 7 -100
l-19 -25 -938 -3 c-898 -3 -940 -4 -991 -23 -224 -82 -382 -239 -463 -460 -23
-64 -32 -110 -40 -213 -12 -154 -8 -1550 4 -1563 5 -4 273 -9 595 -11 505 -3
590 -1 607 12 20 14 20 28 23 574 3 513 5 561 20 568 9 4 262 10 562 12 l545
4 637 631 c350 348 644 644 653 660 16 25 16 29 0 55 -10 15 -306 314 -659
664 l-641 637 -1332 1 -1331 0 -396 -392z"/>
</g>
</svg>
